<svg id="Capa_1" enable-background="new 0 0 512 512" height="512" viewBox="0 0 512 512" width="512" xmlns="http://www.w3.org/2000/svg"><g><g><path clip-rule="evenodd" d="m.293 122.053-.293 293.005c-.033 20.588 16.864 37.442 37.504 37.442h436.992c20.64 0 37.536-16.854 37.504-37.442l-.326-293.005h-255.69z" fill="#e8eaea" fill-rule="evenodd"/></g><g><path clip-rule="evenodd" d="m0 126.892v288.167c0-20.556 16.864-37.409 37.504-37.409h24.84c3.028 0 5.534-2.468 5.534-5.488v-250.109-27.083c0-3.02-2.507-5.488-5.534-5.488h-24.84c-20.608 0-37.504 16.854-37.504 37.41z" fill="#ade194" fill-rule="evenodd"/></g><g><path clip-rule="evenodd" d="m444.122 122.053v250.108c0 3.02 2.474 5.488 5.534 5.488h24.84c20.608 0 37.504 16.854 37.504 37.409v-288.166c0-20.555-16.896-37.409-37.504-37.409h-24.84c-3.06 0-5.534 2.468-5.534 5.488z" fill="#ade194" fill-rule="evenodd"/></g><g><path clip-rule="evenodd" d="m444.122 372.161c0 3.02 2.474 5.488 5.534 5.488h24.84c20.608 0 37.504 16.854 37.504 37.409v-24.452-263.714c0-20.555-16.896-37.409-37.504-37.409h-1.563c7.846 6.884 12.794 16.951 12.794 28.089v231.923c0 3.832.684 5.456-2.637 4.676-2.767-.649-5.632-1.007-8.595-1.007h-30.374v18.997z" fill="#80d261" fill-rule="evenodd"/></g><g><path d="m262.495 375.144h-77.742c-4.267 0-7.726-3.458-7.726-7.724s3.459-7.724 7.726-7.724h77.742c4.267 0 7.726 3.458 7.726 7.724s-3.459 7.724-7.726 7.724zm-121.399 0h-18.947c-4.267 0-7.726-3.458-7.726-7.724s3.459-7.724 7.726-7.724h18.947c4.267 0 7.726 3.458 7.726 7.724s-3.459 7.724-7.726 7.724z" fill="#737a93"/></g><g><path d="m262.495 411.449h-77.742c-4.267 0-7.726-3.458-7.726-7.724s3.459-7.724 7.726-7.724h77.742c4.267 0 7.726 3.458 7.726 7.724s-3.459 7.724-7.726 7.724zm-121.399 0h-18.947c-4.267 0-7.726-3.458-7.726-7.724s3.459-7.724 7.726-7.724h18.947c4.267 0 7.726 3.458 7.726 7.724s-3.459 7.724-7.726 7.724z" fill="#737a93"/></g><g><path clip-rule="evenodd" d="m173.911 168.1c-6.934 1.754-13.445 4.514-19.468 8.053l-5.6-5.618c-2.702-2.663-7.065-2.663-9.767 0l-16.278 16.269c-2.67 2.663-2.67 7.047 0 9.709l5.632 5.618c-3.581 5.975-6.316 12.502-8.074 19.419h-7.944c-3.809 0-6.902 3.085-6.902 6.852v22.991c0 3.767 3.093 6.884 6.902 6.884h7.944c1.758 6.884 4.493 13.411 8.074 19.386l-5.632 5.618c-2.67 2.695-2.67 7.047 0 9.742l16.278 16.237c2.702 2.663 7.065 2.663 9.767 0l5.6-5.618c6.023 3.54 12.534 6.3 19.468 8.053v7.923c0 3.799 3.125 6.884 6.902 6.884h23.017c3.809 0 6.902-3.085 6.902-6.884v-7.923c6.934-1.754 13.478-4.481 19.468-8.053l5.632 5.618c2.67 2.663 7.065 2.663 9.734 0l16.278-16.237c2.702-2.695 2.702-7.047 0-9.742l-5.6-5.618c3.549-5.975 6.283-12.502 8.074-19.386h7.944c3.776 0 6.869-3.117 6.869-6.884v-22.991c0-3.767-3.093-6.852-6.869-6.852h-7.944c-1.791-6.917-4.525-13.444-8.074-19.419l5.632-5.618c2.67-2.663 2.67-7.047-.033-9.709l-16.278-16.269c-2.67-2.663-7.065-2.663-9.734 0l-5.632 5.618c-5.99-3.54-12.534-6.3-19.468-8.053v-7.923c0-3.767-3.093-6.884-6.902-6.884h-23.017c-3.776 0-6.902 3.117-6.902 6.884v7.923z" fill="#737a93" fill-rule="evenodd"/></g><g><path clip-rule="evenodd" d="m148.355 239.898c0 24.225 19.696 43.871 43.982 43.871s43.95-19.646 43.95-43.871-19.664-43.839-43.95-43.839-43.982 19.614-43.982 43.839z" fill="#e8eaea" fill-rule="evenodd"/></g><g><path clip-rule="evenodd" d="m206.955 233.241c0 18.282-2.963 35.396-8.171 50.041 21.226-3.117 37.504-21.367 37.504-43.384 0-20.588-14.194-37.831-33.369-42.572 2.604 11.138 4.036 23.218 4.036 35.915z" fill="#cecece" fill-rule="evenodd"/></g><g><path clip-rule="evenodd" d="m202.918 197.326c19.175 4.741 33.369 21.984 33.369 42.572 0 22.017-16.278 40.267-37.504 43.384-5.795 16.399-14.357 29.713-24.612 38.188.814 2.89 3.483 5.033 6.641 5.033h23.017c3.809 0 6.902-3.085 6.902-6.884v-7.923c9.213-2.338 13.12-6.397 17.092-6.689 2.311-.195 4.623.877 8.009 4.254 2.67 2.663 7.065 2.663 9.734 0l16.278-16.237c2.702-2.695 2.702-7.047 0-9.742l-5.6-5.618c3.549-5.975 6.283-12.502 8.074-19.386h7.944c3.776 0 6.869-3.117 6.869-6.884v-22.991c0-3.767-3.093-6.852-6.869-6.852h-7.944c-1.791-6.917-4.525-13.444-8.074-19.419l5.632-5.618c2.67-2.663 2.67-7.047-.033-9.709l-16.278-16.269c-2.67-2.663-7.065-2.663-9.734 0l-5.632 5.618c-5.99-3.54-12.534-6.3-19.468-8.053v-7.923c0-3.767-3.06-6.852-6.837-6.884h-.065-21.389c9.149 10.974 16.311 26.237 20.478 44.032z" fill="#606b82" fill-rule="evenodd"/></g><g><path clip-rule="evenodd" d="m255.984 452.5h218.512c20.64 0 37.504-16.854 37.504-37.442v-.065c-.033-20.556-16.896-37.344-37.504-37.344h-24.84c-3.06 0-5.534-2.468-5.534-5.488v-18.997-231.111h-60.293c-47.694 92.516-11.785 201.074-127.845 330.447z" fill="#d4d6d8" fill-rule="evenodd"/></g><g><path clip-rule="evenodd" d="m67.878 372.161c0 3.02-2.507 5.488-5.534 5.488h-24.84c-20.64 0-37.504 16.854-37.504 37.409v-24.452-17.081c0-6.365 11.101-15.944 26.598-19.224 13.934-2.923 10.906 1.851 10.906-15.62v-216.628-32.571h24.84c3.028 0 5.534 2.468 5.534 5.488v27.083 231.112z" fill="#80d261" fill-rule="evenodd"/></g><g><path clip-rule="evenodd" d="m329.852 314.554c-19.696 7.306-33.793 26.238-33.793 48.32 0 17.633 8.985 33.253 22.626 42.54 14.324 9.742 11.557-5.65 11.557-8.248v-30.914c0-10.814 8.497-19.744 19.143-20.458 10.678.714 19.175 9.645 19.175 20.458v30.914c0 2.598-2.767 17.99 11.557 8.248 13.641-9.287 22.626-24.907 22.626-42.54 0-22.082-14.129-41.014-33.793-48.32v-161.002c19.663-7.274 33.793-26.238 33.793-48.32 0-17.6-8.985-33.253-22.626-42.54-14.324-9.742-11.557 5.683-11.557 8.248v30.947c0 10.814-8.497 19.744-19.175 20.458-10.646-.714-19.143-9.645-19.143-20.458v-30.947c0-2.565 2.767-17.99-11.557-8.248-13.641 9.287-22.626 24.939-22.626 42.54 0 22.082 14.096 41.046 33.793 48.32z" fill="#c1eaf4" fill-rule="evenodd"/></g><g><path clip-rule="evenodd" d="m378.946 91.204c0 20.166-5.893 37.734-21.942 46.177-6.641 3.475-4.786 4.611-4.786 13.152v163.925c0 5.228-.977 6.495 3.321 8.54 17.157 8.118 23.407 26.108 23.407 46.891 0 11.69-3.939 22.504-10.581 31.174-.098 4.968 1.107 11.593 11.753 4.351 13.641-9.287 22.626-24.907 22.626-42.54 0-22.082-14.129-41.014-33.793-48.32v-161.002c19.663-7.274 33.793-26.238 33.793-48.32 0-17.6-8.985-33.253-22.626-42.54-6.446-4.384-9.441-3.669-10.776-1.331 6.055 8.443 9.604 18.737 9.604 29.843z" fill="#99cfe0" fill-rule="evenodd"/></g></g></svg>