<svg id="Capa_1" enable-background="new 0 0 512 512" height="512" viewBox="0 0 512 512" width="512" xmlns="http://www.w3.org/2000/svg"><g><g><path d="m255.985 475.107c-96.718 0-175.404-78.571-175.404-175.148 0-96.561 78.686-175.119 175.404-175.119 96.735 0 175.435 78.558 175.435 175.119 0 96.577-78.7 175.148-175.435 175.148zm0-334.806c-88.197 0-159.952 71.623-159.952 159.659 0 88.052 71.755 159.688 159.952 159.688 88.214 0 159.982-71.636 159.982-159.688 0-88.036-71.768-159.659-159.982-159.659z" fill="#737a93"/></g><g><path clip-rule="evenodd" d="m173.198 129.831 82.846-18.336 82.379 18.336v22.184c0 29.676-27.83 66.961-61.85 79.584-14.951 5.539-26.223 5.51-41.146-.058-33.962-12.623-61.762-49.878-61.762-79.526z" fill="#ffe5c1" fill-rule="evenodd"/></g><g><path clip-rule="evenodd" d="m304.607 129.831h33.816v22.184c0 29.676-27.83 66.961-61.85 79.584-13.696 5.072-24.267 5.48-37.437 1.253 1.197-.379 2.395-.816 3.621-1.253 34.02-12.623 61.85-49.908 61.85-79.584z" fill="#fed1a3" fill-rule="evenodd"/></g><g><path clip-rule="evenodd" d="m256.044 111.494 82.321-18.366c-4.643-30.726-26.136-55.942-54.754-65.97-3.796-1.603-36.327-5.772-55.104 0-28.647 10.028-50.14 35.244-54.783 65.97z" fill="#fece85" fill-rule="evenodd"/></g><g><path clip-rule="evenodd" d="m338.364 93.129c-4.643-30.726-26.136-55.942-54.754-65.97-3.358-1.399-28.998-4.81-47.891-1.662 4.526.583 7.797 1.224 8.848 1.662 12.966 4.548 24.471 12.215 33.612 22.097 11.038 11.923 18.602 27.082 21.142 43.873z" fill="#fdb440" fill-rule="evenodd"/></g><g><path clip-rule="evenodd" d="m241.238 55.873h14.805 14.835c2.774 0 5.548.525 6.162-2.07l8.615-34.953c.905-3.673-3.095-6.851-6.862-6.851h-22.748-22.748c-3.767 0-7.739 3.178-6.863 6.851l8.615 34.953c.641 2.595 3.386 2.07 6.189 2.07z" fill="#fe9737" fill-rule="evenodd"/></g><g><path clip-rule="evenodd" d="m278.179 49.256 5.432-22.097 2.044-8.308c.905-3.673-3.095-6.851-6.862-6.851h-19.77c3.767 0 7.768 3.178 6.863 6.851l-1.402 5.714-2.716 10.99-4.468 18.249c-.38 1.487-1.431 1.953-2.803 2.07h1.548 14.835c2.774 0 5.548.525 6.162-2.07z" fill="#fe7600" fill-rule="evenodd"/></g><g><path clip-rule="evenodd" d="m339.737 129.831c5.227 0 9.491-4.256 9.491-9.474v-17.753c0-5.218-4.263-9.474-9.491-9.474h-167.386c-5.198 0-9.491 4.256-9.491 9.474v17.753c0 5.218 4.293 9.474 9.491 9.474z" fill="#fdb440" fill-rule="evenodd"/></g><g><path clip-rule="evenodd" d="m339.737 129.831c5.227 0 9.491-4.256 9.491-9.474v-17.753c0-5.218-4.263-9.474-9.491-9.474h-1.372-49.176c5.198 0 9.461 4.256 9.461 9.474v17.753c0 5.218-4.263 9.474-9.461 9.474h49.235z" fill="#fe9737" fill-rule="evenodd"/></g><g><path d="m225.907 172.397c-4.268 0-7.726-3.46-7.726-7.73v-4.898c0-4.27 3.459-7.73 7.726-7.73s7.726 3.46 7.726 7.73v4.898c.001 4.27-3.458 7.73-7.726 7.73z" fill="#737a93"/></g><g><path d="m286.91 172.397c-4.268 0-7.726-3.46-7.726-7.73v-4.898c0-4.27 3.459-7.73 7.726-7.73s7.726 3.46 7.726 7.73v4.898c.001 4.27-3.458 7.73-7.726 7.73z" fill="#737a93"/></g><g><path clip-rule="evenodd" d="m335.97 394.09 87.03-12.836 78.195 12.836v22.184c0 29.676-27.859 66.961-61.85 79.584-14.951 5.539-26.223 5.51-41.175-.058-33.962-12.623-61.733-49.878-61.733-79.526z" fill="#ffe5c1" fill-rule="evenodd"/></g><g><path clip-rule="evenodd" d="m467.379 394.09h33.816v22.184c0 29.676-27.859 66.961-61.85 79.584-13.696 5.072-24.296 5.48-37.437 1.254 1.168-.379 2.395-.816 3.621-1.254 34.02-12.623 61.85-49.908 61.85-79.584z" fill="#fed1a3" fill-rule="evenodd"/></g><g><path clip-rule="evenodd" d="m418.816 375.754 82.321-18.366c-4.643-30.726-26.136-55.942-54.783-65.97-3.767-1.603-36.298-5.772-55.104 0-28.618 10.028-50.111 35.244-54.754 65.97z" fill="#c1eaf4" fill-rule="evenodd"/></g><g><path clip-rule="evenodd" d="m501.137 357.388c-4.643-30.726-26.136-55.942-54.783-65.97-3.329-1.399-28.968-4.81-47.891-1.662 4.556.583 7.826 1.224 8.848 1.662 12.995 4.548 24.501 12.215 33.641 22.097 11.009 11.923 18.602 27.082 21.142 43.873z" fill="#99cfe0" fill-rule="evenodd"/></g><g><path clip-rule="evenodd" d="m403.982 320.132h14.835 14.835c2.774 0 5.519.525 6.162-2.07l8.615-34.953c.876-3.673-3.095-6.851-6.863-6.851h-22.748-22.748c-3.767 0-7.768 3.177-6.862 6.851l8.615 34.953c.639 2.595 3.384 2.07 6.159 2.07z" fill="#6bd9e7" fill-rule="evenodd"/></g><g><path clip-rule="evenodd" d="m440.951 313.515 5.402-22.097 2.073-8.308c.876-3.673-3.095-6.851-6.863-6.851h-19.77c3.767 0 7.768 3.177 6.862 6.851l-1.402 5.714-2.716 10.99-4.497 18.249c-.35 1.487-1.402 1.953-2.774 2.07h1.548 14.835c2.774 0 5.519.525 6.162-2.07z" fill="#00c7dd" fill-rule="evenodd"/></g><g><path clip-rule="evenodd" d="m502.509 394.09c5.227 0 9.491-4.256 9.491-9.474v-17.753c0-5.218-4.263-9.474-9.491-9.474h-167.386c-5.227 0-9.491 4.256-9.491 9.474v17.753c0 5.218 4.264 9.474 9.491 9.474z" fill="#6bd9e7" fill-rule="evenodd"/></g><g><path clip-rule="evenodd" d="m502.509 394.09c5.227 0 9.491-4.256 9.491-9.474v-17.753c0-5.218-4.263-9.474-9.491-9.474h-1.372-49.176c5.198 0 9.461 4.256 9.461 9.474v17.753c0 5.218-4.263 9.474-9.461 9.474h49.235z" fill="#00c7dd" fill-rule="evenodd"/></g><g><path clip-rule="evenodd" d="m10.308 394.09 82.861-12.836 82.364 12.836v22.184c0 29.676-27.83 66.961-61.85 79.584-14.951 5.539-26.194 5.51-41.146-.058-33.962-12.623-61.733-49.878-61.733-79.526z" fill="#ffe5c1" fill-rule="evenodd"/></g><g><path clip-rule="evenodd" d="m141.718 394.09h33.816v22.184c0 29.676-27.83 66.961-61.85 79.584-13.696 5.072-24.267 5.48-37.437 1.254 1.197-.379 2.395-.816 3.621-1.254 34.02-12.623 61.85-49.908 61.85-79.584z" fill="#fed1a3" fill-rule="evenodd"/></g><g><path clip-rule="evenodd" d="m93.155 375.754 82.321-18.366c-4.643-30.726-26.107-55.942-54.754-65.97-3.796-1.603-36.327-5.772-55.104 0-28.647 10.028-50.14 35.244-54.754 65.97z" fill="#c1eaf4" fill-rule="evenodd"/></g><g><path clip-rule="evenodd" d="m175.475 357.388c-4.643-30.726-26.107-55.942-54.754-65.97-3.358-1.399-28.998-4.81-47.891-1.662 4.556.583 7.797 1.224 8.848 1.662 12.966 4.548 24.471 12.215 33.612 22.097 11.038 11.923 18.602 27.082 21.142 43.873z" fill="#99cfe0" fill-rule="evenodd"/></g><g><path clip-rule="evenodd" d="m78.349 320.132h14.805 14.835c2.774 0 5.548.525 6.191-2.07l8.585-34.953c.905-3.673-3.095-6.851-6.862-6.851h-22.748-22.72c-3.796 0-7.768 3.177-6.862 6.851l8.585 34.953c.643 2.595 3.417 2.07 6.191 2.07z" fill="#6bd9e7" fill-rule="evenodd"/></g><g><path clip-rule="evenodd" d="m115.29 313.515 5.432-22.097 2.044-8.308c.905-3.673-3.095-6.851-6.862-6.851h-19.77c3.796 0 7.768 3.177 6.862 6.851l-1.402 5.714-2.687 10.99-4.497 18.249c-.38 1.487-1.431 1.953-2.774 2.07h1.519 14.835c2.774 0 5.548.525 6.191-2.07z" fill="#00c7dd" fill-rule="evenodd"/></g><g><path clip-rule="evenodd" d="m176.877 394.09c5.198 0 9.461-4.256 9.461-9.474v-17.753c0-5.218-4.264-9.474-9.461-9.474h-167.416c-5.198 0-9.461 4.256-9.461 9.474v17.753c0 5.218 4.264 9.474 9.461 9.474z" fill="#6bd9e7" fill-rule="evenodd"/></g><g><path clip-rule="evenodd" d="m176.877 394.09c5.198 0 9.461-4.256 9.461-9.474v-17.753c0-5.218-4.264-9.474-9.461-9.474h-1.402-49.176c5.227 0 9.491 4.256 9.491 9.474v17.753c0 5.218-4.263 9.474-9.491 9.474h49.235z" fill="#00c7dd" fill-rule="evenodd"/></g><g><path d="m388.651 436.656c-4.268 0-7.726-3.46-7.726-7.73v-4.897c0-4.27 3.459-7.73 7.726-7.73s7.726 3.46 7.726 7.73v4.897c0 4.269-3.458 7.73-7.726 7.73z" fill="#737a93"/></g><g><path d="m449.683 436.656c-4.268 0-7.726-3.46-7.726-7.73v-4.897c0-4.27 3.459-7.73 7.726-7.73s7.726 3.46 7.726 7.73v4.897c0 4.269-3.458 7.73-7.726 7.73z" fill="#737a93"/></g><g><path d="m63.018 436.656c-4.268 0-7.726-3.46-7.726-7.73v-4.897c0-4.27 3.459-7.73 7.726-7.73s7.726 3.46 7.726 7.73v4.897c0 4.269-3.458 7.73-7.726 7.73z" fill="#737a93"/></g><g><path d="m124.021 436.656c-4.268 0-7.726-3.46-7.726-7.73v-4.897c0-4.27 3.459-7.73 7.726-7.73s7.726 3.46 7.726 7.73v4.897c0 4.269-3.458 7.73-7.726 7.73z" fill="#737a93"/></g></g></svg>