<svg id="Capa_1" enable-background="new 0 0 512 512" height="512" viewBox="0 0 512 512" width="512" xmlns="http://www.w3.org/2000/svg"><g><g><path clip-rule="evenodd" d="m490.009 406.704h-341.453c-21.978 0-24.502 2.029-15.94-24.148l33.672-102.721c7.841-24.107 27.902-26.806 50.426-33.646l57.659-17.534h89.786l57.69 17.534c22.493 6.84 42.585 9.54 50.395 33.646l33.672 102.721c8.595 26.177 6.07 24.148-15.907 24.148z" fill="#e8eaea" fill-rule="evenodd"/></g><g><path clip-rule="evenodd" d="m345.439 406.701-14.312-95.356-13.063-6.725-10.655 6.725-14.311 95.356z" fill="#fece85" fill-rule="evenodd"/></g><g><path clip-rule="evenodd" d="m327.15 244.595c-5.313.812-10.422.812-15.734 0-8.709 5.275-21.366 22.144-22.818 42.056-.087.029-.145.058-.232.087l19.044 24.607h10.335 13.383l19.073-24.607c6.182-4-11.642-40.404-23.051-42.143z" fill="#fdb440" fill-rule="evenodd"/></g><g><path clip-rule="evenodd" d="m367.357 281.085 15.154-20.202 16.315-21.709-34.662-10.521c-9.828-4.781-18.961-4.667-26.828-1.769-5.196 1.942-8.183 9.487-10.186 17.71l14.138 34.694c.9 2.232 4.384 5.739 8.912 7.449 5.138 1.942 11.641 1.565 17.157-5.652z" fill="#cecece" fill-rule="evenodd"/></g><g><path clip-rule="evenodd" d="m297.278 279.288 14.138-34.694c-3.309-15.941-24.913-20.722-37.043-15.941l-34.633 10.521 31.44 41.911c5.545 7.217 12.019 7.594 17.186 5.652 4.499-1.71 8.012-5.217 8.912-7.449z" fill="#cecece" fill-rule="evenodd"/></g><g><path clip-rule="evenodd" d="m228.505 129.123 93.997-20.086 87.035 20.086v24.317c0 32.549-30.511 73.387-67.786 87.212-16.373 6.087-28.711 6.058-45.084-.029-37.217-13.883-67.64-54.664-67.64-87.183z" fill="#ffe5c1" fill-rule="evenodd"/></g><g><path clip-rule="evenodd" d="m372.495 129.123h37.043v24.317c0 32.549-30.511 73.387-67.786 87.212-14.98 5.565-26.592 6.029-40.991 1.362 1.277-.406 2.613-.87 3.948-1.362 37.275-13.825 67.786-54.664 67.786-87.212z" fill="#fed1a3" fill-rule="evenodd"/></g><g><path clip-rule="evenodd" d="m319.283 109.037 90.197-20.115c-5.08-33.679-28.624-61.301-60.006-72.286-4.151-1.768-39.8-6.348-60.383 0-31.382 10.985-54.925 38.606-60.006 72.286z" fill="#fece85" fill-rule="evenodd"/></g><g><path clip-rule="evenodd" d="m409.48 88.922c-5.08-33.679-28.624-61.301-60.006-72.286-3.658-1.565-31.788-5.304-52.487-1.826 4.993.609 8.535 1.333 9.696 1.826 14.225 4.956 26.824 13.362 36.839 24.172 12.077 13.072 20.379 29.68 23.166 48.113h42.792z" fill="#fdb440" fill-rule="evenodd"/></g><g><path clip-rule="evenodd" d="m303.026 48.084h16.257 16.228c3.048 0 6.067.58 6.793-2.29l9.406-38.288c.987-4.028-3.368-7.506-7.519-7.506h-24.908-24.937c-4.122 0-8.506 3.478-7.519 7.507l9.435 38.288c.697 2.869 3.716 2.289 6.764 2.289z" fill="#fe9737" fill-rule="evenodd"/></g><g><path clip-rule="evenodd" d="m343.523 40.809 5.951-24.172 2.235-9.13c.988-4.029-3.367-7.507-7.518-7.507h-21.657c4.151 0 8.506 3.478 7.519 7.507l-1.539 6.26-2.961 12.028-4.906 19.999c-.406 1.623-1.568 2.145-3.077 2.29h1.713 16.228c3.048 0 6.067.58 6.793-2.29z" fill="#fe7600" fill-rule="evenodd"/></g><g><path clip-rule="evenodd" d="m345.439 406.701-14.312-95.356h-13.383l6.242 95.356z" fill="#fdb440" fill-rule="evenodd"/></g><g><path clip-rule="evenodd" d="m472.243 279.839c-7.809-24.115-27.898-26.81-50.397-33.65l-23.021-7.014-16.315 21.709 15.27 4.666c22.498 6.811 42.587 9.507 50.397 33.65l33.675 102.719c.581 1.71 1.074 3.304 1.539 4.782h6.619c21.976 0 24.502 2.029 15.909-24.144z" fill="#d4d6d8" fill-rule="evenodd"/></g><g><path clip-rule="evenodd" d="m350.055 260.13c2.38-.898 4.761-1.855 7.141-2.927 7.287-3.246 8.593-1.391 16.576 1.043l8.738 2.638 16.315-21.709-8.767-2.638-25.895-7.884c-6.996 4.985-14.544 9.101-22.411 11.999-5.196 1.942-9.986 3.246-14.602 3.942l8.128 19.941c4.703-1.014 9.58-2.492 14.777-4.405z" fill="#baafb9" fill-rule="evenodd"/></g><g><path clip-rule="evenodd" d="m311.416 244.595c-.319-.058-.61-.087-.929-.145.319.058.609.116.929.145zm-8.1 19.912 8.099-19.912c-.319-.029-.61-.087-.929-.145-.203-.029-.406-.058-.61-.116-5.196-.927-10.48-2.551-15.618-4.666-6.938-2.811-13.615-6.55-19.886-11.014l-25.721 7.826c12.077 10.057 25.605 18.26 39.888 23.593 5.168 1.912 10.045 3.39 14.777 4.434z" fill="#baafb9" fill-rule="evenodd"/></g><g><path clip-rule="evenodd" d="m341.288 279.288-6.009-14.753-8.128-19.941c-5.313.812-10.422.812-15.734 0l-3.309 8.144 13.499 25.361c4.703 8.811 2.758 10.956-.116 20.608l-3.745 12.637h13.383l7.78-10.057 11.293-14.55c-4.531-1.71-8.014-5.217-8.914-7.449z" fill="#fe9737" fill-rule="evenodd"/></g><g><path clip-rule="evenodd" d="m410.989 129.123c5.719 0 10.393-4.666 10.393-10.376v-19.448c0-5.71-4.674-10.376-10.393-10.376h-183.442c-5.69 0-10.364 4.666-10.364 10.376v19.448c0 5.71 4.674 10.376 10.364 10.376z" fill="#fdb440" fill-rule="evenodd"/></g><g><path clip-rule="evenodd" d="m410.989 129.123c5.719 0 10.393-4.666 10.393-10.376v-19.448c0-5.71-4.674-10.376-10.393-10.376h-1.51-53.879c5.69 0 10.364 4.666 10.364 10.376v19.448c0 5.71-4.674 10.376-10.364 10.376h53.938z" fill="#fe9737" fill-rule="evenodd"/></g><g><path d="m443.014 365.197v41.507h-15.455v-41.507c0-4.265 3.462-7.727 7.728-7.727s7.727 3.462 7.727 7.727z" fill="#d4d6d8"/></g><g><path d="m206.965 403.356c-4.268 0-7.728-3.459-7.728-7.727v-30.433c0-4.267 3.46-7.727 7.728-7.727s7.728 3.459 7.728 7.727v30.433c-.001 4.268-3.46 7.727-7.728 7.727z" fill="#d4d6d8"/></g><g><path d="m286.246 175.021c-4.268 0-7.728-3.459-7.728-7.727v-5.362c0-4.267 3.46-7.727 7.728-7.727s7.728 3.459 7.728 7.727v5.362c0 4.268-3.46 7.727-7.728 7.727z" fill="#737a93"/></g><g><path d="m353.074 175.021c-4.268 0-7.728-3.459-7.728-7.727v-5.362c0-4.267 3.46-7.727 7.728-7.727s7.728 3.459 7.728 7.727v5.362c0 4.268-3.46 7.727-7.728 7.727z" fill="#737a93"/></g><g><path clip-rule="evenodd" d="m269.525 457.307c1.597-18.144-5.487-36.781-20.582-49.128-.61-.522-1.248-1.014-1.887-1.478-11.844-8.898-26.243-12.492-40.091-11.072-8.07.841-15.938 3.362-23.05 7.507l-45.752-37.476-23.427-19.187c7.548-21.883 1.219-47.186-17.679-62.663-15.096-12.376-34.778-15.651-52.283-10.55-18.376 5.391-3.251 13.825-1.045 15.651l26.476 21.68c9.261 7.565 10.944 21.071 4.093 30.694-8.07 8.579-21.686 9.565-30.946 2l-26.476-21.68c-2.206-1.826-13.47-14.985-15.154 4.058-1.597 18.144 5.487 36.781 20.582 49.128 18.899 15.477 45.026 16.724 65.028 5.043l69.208 56.634c-7.577 21.883-1.219 47.215 17.679 62.692 3.629 2.985 7.519 5.42 11.583 7.362 12.831 6.087 27.405 7.043 40.7 3.159 3.338-.956 5.574-2.029 6.967-3.159 6.329-5.043-4.122-10.985-5.951-12.463l-26.476-21.68c-9.261-7.594-10.944-21.1-4.093-30.694 8.099-8.579 21.686-9.565 30.946-2l26.476 21.68c2.206 1.826 13.47 14.985 15.154-4.058z" fill="#c1eaf4" fill-rule="evenodd"/></g><g><path clip-rule="evenodd" d="m114.736 346.473c7.548-21.883 1.219-47.186-17.679-62.663-15.096-12.376-34.778-15.651-52.283-10.55-12.106 3.565-9.667 8.434-5.98 11.854 26.272-6.463 56.551 4.348 58.844 41.476 1.074 17.68-5.632 32.433 1.51 37.679l26.04 22.26 4.906 4.058 19.683 16.115 10.306 8.492c8.099 6.637 11.786 11.883 20.524 8.202 5.284-2.232 10.828-3.652 16.489-4.232 27.666-11.246 63.054 7.739 60.935 45.505 4.18 3.391 10.306 6.261 11.496-7.362 1.597-18.144-5.487-36.781-20.582-49.128-.61-.522-1.248-1.014-1.887-1.478-11.844-8.898-26.243-12.492-40.091-11.072-8.07.841-15.938 3.362-23.05 7.507l-45.752-37.476z" fill="#99cfe0" fill-rule="evenodd"/></g></g></svg>